<svg width="519.0644287109375px" height="121.39999999999999px" xmlns="http://www.w3.org/2000/svg" viewBox="-9.532214355468739 14.300000000000004 519.0644287109375 121.39999999999999" style="background: rgba(0, 0, 0, 0);" preserveAspectRatio="xMidYMid"><defs><filter id="editing-raise" x="-100%" y="-100%" width="300%" height="300%"><feFlood flood-color="#ccc" result="flood-surface"></feFlood><feFlood flood-color="#777" result="flood-extrude"></feFlood><feMorphology operator="erode" in="SourceAlpha" radius="1" result="erode"></feMorphology><feConvolveMatrix in="erode" result="shadow" order="11,8" divisor="1" kernelMatrix="0 0 0 1 1 1 1 1 0 0 0 0 0 1 0 0 0 0 0 1 0 0 0 0 1 0 0 0 0 0 1 0 0 0 0 1 0 0 0 0 0 1 0 0 0 0 1 0 0 0 0 0 1 0 0 0 0 0 1 0 0 0 1 0 0 0 0 0 0 1 1 0 1 1 0 0 0 0 0 0 0 0 1 0 0 0 0 0"></feConvolveMatrix><feOffset dx="0" dy="4" in="shadow" result="offset"></feOffset><feGaussianBlur in="offset" stdDeviation="0.2" result="blur"></feGaussianBlur><feComposite operator="in" in="flood-extrude" in2="blur" result="extrude"></feComposite><feMorphology operator="erode" in="SourceAlpha" radius="1" result="erode2"></feMorphology><feConvolveMatrix in="erode2" result="out" order="4,4" divisor="1" kernelMatrix="0 1 1 0 1 0 0 1 1 0 0 1 0 1 1 0 "></feConvolveMatrix><feComposite operator="in" in="flood-surface" in2="out" result="text"></feComposite><feMerge><feMergeNode in="extrude"></feMergeNode><feMergeNode in="text"></feMergeNode></feMerge></filter></defs><g filter="url(#editing-raise)"><g transform="translate(68.4597619175911, 97.46500015258789)"><path d="M7.68 0L0.64 0L8.32-42.24L22.08-42.24L32.06-13.18L37.38-42.24L44.48-42.18L36.67 0L22.02 0L12.80-27.97L7.68 0ZM75.20-33.92L75.20-33.92L75.20-33.92Q70.02-33.92 66.24-35.65L66.24-35.65L64.19-25.28L76.54-25.28L76.54-25.28Q76.54-21.89 74.85-19.74L74.85-19.74L74.85-19.74Q73.15-17.60 70.08-17.60L70.08-17.60L70.08-17.60Q66.75-17.60 63.68-18.82L63.68-18.82L63.68-18.82Q63.04-19.07 62.98-19.14L62.98-19.14L59.33 0L45.38 0L53.50-42.24L82.05-42.24L82.05-42.24Q82.05-38.34 80.22-36.13L80.22-36.13L80.22-36.13Q78.40-33.92 75.20-33.92ZM85.57-31.17L85.57-31.17L85.57-31.17Q83.39-32.83 83.39-36.38L83.39-36.38L83.39-36.38Q83.39-39.94 85.73-41.79L85.73-41.79L85.73-41.79Q88.06-43.65 92.10-43.65L92.10-43.65L92.10-43.65Q94.66-43.65 100.74-42.75L100.74-42.75L105.09-42.11L105.09-42.11Q107.26-41.86 109.54-41.86L109.54-41.86L109.54-41.86Q111.81-41.86 113.34-42.82L113.34-42.82L113.34-42.82Q115.65-40.77 115.65-37.82L115.65-37.82L115.65-37.82Q115.65-34.88 113.02-32.77L113.02-32.77L113.02-32.77Q110.34-30.53 106.88-30.53L106.88-30.53L106.88-30.53Q105.22-30.53 102.53-30.98L102.53-30.98L102.53-30.98Q99.39-21.12 99.39-14.27L99.39-14.27L99.39-14.27Q99.39-7.42 102.85-3.84L102.85-3.84L102.85-3.84Q101.25-0.96 98.88 0.16L98.88 0.16L98.88 0.16Q96.51 1.28 92.96 1.28L92.96 1.28L92.96 1.28Q89.41 1.28 87.20-0.67L87.20-0.67L87.20-0.67Q84.99-2.62 84.99-6.66L84.99-6.66L84.99-6.66Q84.99-11.33 87.55-19.01L87.55-19.01L87.55-19.01Q90.11-26.62 93.95-32.45L93.95-32.45L93.95-32.45Q92.10-32.64 90.18-32.64L90.18-32.64L90.18-32.64Q86.21-32.64 85.57-31.17ZM153.54-9.86L153.54-9.86L153.54-9.86Q154.75-8.32 154.75-5.34L154.75-5.34L154.75-5.34Q154.75-2.37 152.48-0.54L152.48-0.54L152.48-0.54Q150.21 1.28 146.24 1.28L146.24 1.28L146.24 1.28Q143.94 1.28 140.35 0.77L140.35 0.77L140.35 0.77Q133.31-0.32 131.30-0.32L131.30-0.32L131.30-0.32Q129.28-0.32 128.45-0.22L128.45-0.22L128.45-0.22Q127.62-0.13 126.27 0L126.27 0L134.02-42.24L148.03-42.24L141.63-7.04L141.63-7.04Q142.46-6.91 143.23-6.91L143.23-6.91L144.83-6.91L144.83-6.91Q150.21-6.91 153.54-9.86ZM159.94-9.47L159.94-9.47L159.94-9.47Q159.94-11.97 160.58-15.17L160.58-15.17L165.76-42.24L179.90-42.24L174.78-14.98L174.78-14.98Q174.21-11.97 174.21-9.76L174.21-9.76L174.21-9.76Q174.21-7.55 175.14-6.40L175.14-6.40L175.14-6.40Q176.06-5.25 177.79-5.25L177.79-5.25L177.79-5.25Q179.52-5.25 180.61-5.70L180.61-5.70L180.61-5.70Q181.70-6.14 182.59-7.23L182.59-7.23L182.59-7.23Q184.32-9.41 185.41-14.98L185.41-14.98L190.59-42.24L200.26-42.24L195.14-15.04L195.14-15.04Q193.34-5.95 188.42-2.30L188.42-2.30L188.42-2.30Q183.62 1.28 174.14 1.28L174.14 1.28L174.14 1.28Q167.04 1.28 163.26-1.79L163.26-1.79L163.26-1.79Q159.94-4.48 159.94-9.47ZM203.52-39.87L203.52-39.87L203.52-39.87Q206.53-43.39 211.52-43.39L211.52-43.39L211.52-43.39Q215.49-43.39 217.60-41.86L217.60-41.86L217.60-41.86Q219.71-40.26 221.12-36.35L221.12-36.35L223.81-28.74L233.47-42.18L242.11-42.18L226.43-21.38L230.46-9.98L230.46-9.98Q231.36-7.42 232.93-5.54L232.93-5.54L232.93-5.54Q234.50-3.65 235.90-3.33L235.90-3.33L235.90-3.33Q234.62-0.90 232.42 0.19L232.42 0.19L232.42 0.19Q230.21 1.28 226.98 1.28L226.98 1.28L226.98 1.28Q223.74 1.28 221.47-0.83L221.47-0.83L221.47-0.83Q219.20-2.94 217.47-7.68L217.47-7.68L215.62-12.80L205.95 0L198.08 0L212.80-20.42L208.19-33.28L208.19-33.28Q207.17-36.10 206.14-37.54L206.14-37.54L206.14-37.54Q205.12-38.98 203.52-39.87ZM241.47-9.47L241.47-9.47L241.47-9.47Q241.47-11.97 242.11-15.17L242.11-15.17L247.30-42.24L261.44-42.24L256.32-14.98L256.32-14.98Q255.74-11.97 255.74-9.76L255.74-9.76L255.74-9.76Q255.74-7.55 256.67-6.40L256.67-6.40L256.67-6.40Q257.60-5.25 259.33-5.25L259.33-5.25L259.33-5.25Q261.06-5.25 262.14-5.70L262.14-5.70L262.14-5.70Q263.23-6.14 264.13-7.23L264.13-7.23L264.13-7.23Q265.86-9.41 266.94-14.98L266.94-14.98L272.13-42.24L281.79-42.24L276.67-15.04L276.67-15.04Q274.88-5.95 269.95-2.30L269.95-2.30L269.95-2.30Q265.15 1.28 255.68 1.28L255.68 1.28L255.68 1.28Q248.58 1.28 244.80-1.79L244.80-1.79L244.80-1.79Q241.47-4.48 241.47-9.47ZM296.19 0L282.50 0L290.30-42.05L290.30-42.05Q296.64-42.75 305.89-42.75L305.89-42.75L305.89-42.75Q315.14-42.75 319.42-40.06L319.42-40.06L319.42-40.06Q323.71-37.38 323.71-31.97L323.71-31.97L323.71-31.97Q323.71-26.56 320.93-23.17L320.93-23.17L320.93-23.17Q318.14-19.78 313.34-18.69L313.34-18.69L313.34-18.69Q314.43-13.38 316.93-9.09L316.93-9.09L316.93-9.09Q319.23-5.06 321.92-3.78L321.92-3.78L321.92-3.78Q320.96-1.09 319.01 0.10L319.01 0.10L319.01 0.10Q317.06 1.28 314.27 1.28L314.27 1.28L314.27 1.28Q311.49 1.28 309.31-0.35L309.31-0.35L309.31-0.35Q307.14-1.98 305.41-4.99L305.41-4.99L305.41-4.99Q301.76-11.52 301.38-21.82L301.38-21.82L301.82-21.82L301.82-21.82Q306.56-21.95 308.93-24.42L308.93-24.42L308.93-24.42Q311.30-26.88 311.30-32.06L311.30-32.06L311.30-32.06Q311.30-38.53 305.86-38.78L305.86-38.78L304.45-38.78L304.45-38.78Q303.87-38.78 303.55-38.72L303.55-38.72L296.19 0ZM331.46 0L335.17-18.82L335.17-18.82Q333.31-36.16 326.78-39.87L326.78-39.87L326.78-39.87Q328.13-41.54 330.30-42.46L330.30-42.46L330.30-42.46Q332.48-43.39 335.10-43.39L335.10-43.39L335.10-43.39Q337.73-43.39 339.71-42.46L339.71-42.46L339.71-42.46Q341.70-41.54 342.98-39.55L342.98-39.55L342.98-39.55Q345.41-35.78 345.41-26.75L345.41-26.75L345.41-22.14L345.41-22.14Q349.25-33.41 353.09-38.27L353.09-38.27L353.09-38.27Q356.99-43.26 361.86-43.26L361.86-43.26L361.86-43.26Q363.78-43.26 365.06-42.27L365.06-42.27L365.06-42.27Q366.34-41.28 366.98-39.81L366.98-39.81L366.98-39.81Q362.05-37.63 357.31-31.36L357.31-31.36L357.31-31.36Q352.58-25.09 349.50-16.32L349.50-16.32L345.73 0L331.46 0Z"></path></g></g><style>text {
  font-size: 64px;
  font-family: Arial Black;
  dominant-baseline: central;
  text-anchor: middle;
}</style></svg>